HIERARCHY
ROOT Hips
{
	OFFSET 0.00000 0.00000 0.00000
	CHANNELS 6 Xposition Yposition Zposition Yrotation Zrotation Xrotation 
	JOINT Lumbar
	{
		OFFSET 0 0 0
		CHANNELS 3 Zrotation Xrotation Yrotation
		JOINT Neck
		{
			OFFSET 0.00 0.2701 0.00
			CHANNELS 3 Zrotation Xrotation Yrotation
			End Site
			{
				OFFSET 0.00 0.1379 0.00
			}
		}
		JOINT RightShoulder
		{
			OFFSET 0.0119 0.2289 0.1181
			CHANNELS 3 Zrotation Xrotation Yrotation
			JOINT RightElbow
			{
				OFFSET 0.00 -0.1475 0.00
				CHANNELS 2 Zrotation Yrotation
				JOINT RightWrist
				{
					OFFSET 0.00 -0.1605 0.00
					CHANNELS 2 Zrotation Xrotation
					End Site
					{
						OFFSET 0.0040 -0.1068 0.0006
					}
				}
			}
		}
		JOINT LeftShoulder
		{
			OFFSET 0.0119 0.2289 -0.1181
			CHANNELS 3 Zrotation Xrotation Yrotation
			JOINT LeftElbow
			{
				OFFSET 0.00 -0.1475 0.00
				CHANNELS 2 Zrotation Yrotation
				JOINT LeftWrist
				{
					OFFSET 0.00 -0.1605 0.00
					CHANNELS 2 Zrotation Xrotation
					End Site
					{
						OFFSET 0.0040 -0.1068 -0.0006
					}
				}
			}
		}
	}
	JOINT RightHip
	{
		OFFSET 0.0316 -0.0424 0.0458
		CHANNELS 3 Zrotation Xrotation Yrotation
		JOINT RightKnee
		{
			OFFSET 0.00 -0.2438 0.00
			CHANNELS 1 Zrotation
			JOINT RightAnkle
			{
				OFFSET 0.00 -0.2449 0.00
				CHANNELS 3 Zrotation Xrotation Yrotation
				End Site
				{
					OFFSET 0.1237 -0.0542 0.0051
				}
			}
		}
	}
	JOINT LeftHip
	{
		OFFSET 0.0316 -0.0424 -0.0458
		CHANNELS 3 Zrotation Xrotation Yrotation
		JOINT LeftKnee
		{
			OFFSET 0.00 -0.2438 0.00
			CHANNELS 1 Zrotation
			JOINT LeftAnkle
			{
				OFFSET 0.00 -0.2449 0.00
				CHANNELS 3 Zrotation Xrotation Yrotation
				End Site
				{
					OFFSET 0.1237 -0.0542 -0.0051
				}
			}
		}
	}
}
MOTION
Frames: 19
Frame Time: 0.02
1.67924 -0.01133 -0.5018 757.34558 -37.39339 16.70949 9.44557 10.73731 -22.62593 19.3934 5.05457 -0.83079 93.98272 -14.83635 47.55798 56.49561 91.05839 -8.00449 -10.22971 52.08256 2.91056 -23.36912 56.15886 -94.13795 -13.75423 8.01455 33.44897 -9.56698 -17.2804 -109.79323 -5.90361 -3.79891 -2.58522 122.78069 20.89109 12.71183 -139.97017 -5.63009 1.44088 1.30729
1.67895 -0.01156 -0.50214 757.13135 -37.30434 16.8054 9.24227 10.63647 -22.22097 19.41914 5.42229 -0.83079 95.0638 -12.63702 46.29432 57.33633 94.12297 -10.9777 -9.93901 52.09837 2.68242 -23.15481 56.64065 -95.74472 -14.97472 8.01031 33.34851 -9.78192 -17.09056 -109.9198 -5.86828 -3.82336 -2.59867 122.62193 20.77304 12.89596 -140.04372 -5.61475 1.5172 1.34555
1.67819 -0.01208 -0.50243 756.99145 -37.30003 16.92249 8.94727 10.59697 -21.69774 19.52151 5.91046 -0.83079 96.32864 -10.60345 44.40619 57.56541 98.70983 -15.16287 -9.4934 52.42001 2.34999 -22.99316 57.1083 -98.24759 -16.78987 8.01632 33.4104 -10.02469 -16.96075 -110.19809 -5.82423 -3.8698 -2.62423 122.65061 20.90668 13.24898 -140.13864 -5.58174 1.55967 1.36754
1.67762 -0.01249 -0.50274 756.82513 -37.26535 17.03205 8.69404 10.53624 -21.22786 19.59384 6.34158 -0.83079 97.48295 -8.54127 42.78453 58.05912 102.46012 -18.69193 -9.13026 52.61272 2.06471 -22.80954 57.57773 -100.28701 -18.29959 8.01816 33.41061 -10.25358 -16.80299 -110.41269 -5.78484 -3.90451 -2.64326 122.60763 20.94126 13.5332 -140.22317 -5.55069 1.61112 1.39369
1.67712 -0.01283 -0.50309 756.62615 -37.19758 17.13468 8.4379 10.44615 -20.75251 19.64706 6.78538 -0.83079 98.76224 -6.26267 41.22496 58.6095 106.81338 -22.67362 -8.72061 52.77218 1.77342 -22.61506 58.06115 -102.58432 -19.9734 8.01989 33.36096 -10.49142 -16.64569 -110.60773 -5.74213 -3.94601 -2.66632 122.50742 20.91567 13.79073 -140.31115 -5.51911 1.67164 1.42457
1.67638 -0.01336 -0.50333 756.51495 -37.21816 17.25651 8.16763 10.43298 -20.26505 19.75744 7.22929 -0.83079 99.81673 -4.4869 39.39742 58.89646 110.27849 -25.99679 -8.36952 53.06877 1.47363 -22.45726 58.51424 -104.55091 -21.44098 8.02363 33.45341 -10.71505 -16.50304 -110.8783 -5.70451 -3.97896 -2.68409 122.57038 21.07368 14.14116 -140.39669 -5.49358 1.71101 1.44461
1.67508 -0.01437 -0.50324 756.60941 -37.46465 17.42026 7.87311 10.6085 -19.75002 20.01191 7.65578 -0.83079 100.25433 -3.99497 36.91709 58.60325 110.88188 -27.21229 -8.21601 53.68468 1.16287 -22.38101 58.88602 -105.36807 -22.19028 8.02932 33.89675 -10.902 -16.38111 -111.32284 -5.68197 -3.98096 -2.68303 123.04553 21.67431 14.70864 -140.47118 -5.49617 1.71119 1.44417
1.67357 -0.01555 -0.50304 756.79297 -37.79657 17.60331 7.56931 10.86087 -19.2317 20.32011 8.07577 -0.83079 100.44973 -4.01781 34.20254 58.06529 110.54782 -27.72166 -8.12666 54.42415 0.85027 -22.34147 59.22807 -105.82274 -22.71025 8.03678 34.47755 -11.07165 -16.27323 -111.83711 -5.66511 -3.97402 -2.6765 123.67708 22.45085 15.36226 -140.5421 -5.50519 1.69007 1.43278
1.67216 -0.01664 -0.50289 756.94807 -38.08739 17.78107 7.27495 11.08401 -18.73101 20.60052 8.49076 -0.83079 100.72257 -3.84809 31.63776 57.64244 110.66592 -28.54745 -8.00839 55.09563 0.54808 -22.28985 59.58609 -106.44961 -23.33463 8.04362 34.99648 -11.2425 -16.16233 -112.31776 -5.64646 -3.97253 -2.67335 124.23228 23.14798 15.97461 -140.61417 -5.51409 1.67667 1.42534
1.67071 -0.01779 -0.50273 757.05551 -38.39044 17.94507 6.95498 11.2858 -18.15884 20.8984 8.94357 -0.83079 101.13801 -3.5067 28.86431 57.1867 110.72101 -29.43122 -7.8831 55.82743 0.20235 -22.22037 59.936 -107.0713 -23.97769 8.04931 35.51889 -11.44198 -16.03866 -112.81285 -5.62423 -3.96598 -2.66685 124.81646 23.85174 16.60293 -140.68956 -5.5216 1.67771 1.42529
1.6693 -0.01885 -0.50257 757.28171 -38.68765 18.14186 6.68774 11.54882 -17.73523 21.17096 9.31449 -0.83079 101.19858 -3.64617 26.4829 56.74325 110.67211 -30.01498 -7.79052 56.45952 -0.05252 -22.19639 60.29235 -107.61263 -24.52151 8.05864 36.06416 -11.57802 -15.94491 -113.29125 -5.61084 -3.9675 -2.66584 125.37475 24.58014 17.21499 -140.75618 -5.51937 1.63446 1.40274
1.668 -0.01964 -0.50248 757.81998 -38.9435 18.42564 6.566 11.96753 -17.73347 21.36587 9.45985 -0.83079 100.31953 -4.96076 25.20324 56.44842 110.4945 -29.89863 -7.76599 56.77868 -0.04807 -22.28726 60.70499 -107.95461 -24.8262 8.06879 36.64183 -11.53668 -15.92359 -113.71582 -5.62118 -3.99401 -2.68154 125.8243 25.33175 17.77054 -140.80552 -5.61902 1.56133 1.36351
1.66675 -0.02033 -0.5024 758.47328 -39.19082 18.74139 6.49881 12.44377 -17.88024 21.53195 9.52252 -0.83079 99.09452 -6.7456 24.33655 56.1675 110.24899 -29.50606 -7.77407 56.99283 0.04735 -22.42301 61.11953 -108.23355 -25.03915 8.0838 37.23637 -11.43291 -15.93275 -114.11862 -5.64017 -4.02871 -2.70283 126.24113 26.10067 18.30425 -140.84492 -5.68805 1.43073 1.29536
1.66549 -0.02105 -0.5023 759.0696 -39.44456 19.04168 6.40836 12.88993 -17.95213 21.7074 9.62323 -0.83079 98.0391 -8.332 23.30888 55.84699 110.0749 -29.26401 -7.77238 57.2586 0.09591 -22.53879 61.51263 -108.58322 -25.30583 8.10271 37.82053 -11.36203 -15.93223 -114.52463 -5.65475 -4.05924 -2.72137 126.67148 26.86215 18.84069 -140.88476 -5.68128 1.26645 1.21097
1.66417 -0.02183 -0.50225 759.68869 -39.69097 19.34672 6.31006 13.35587 -18.05369 21.90091 9.7222 -0.83079 96.92223 -9.87244 22.15966 55.6569 109.70271 -28.896 -7.75182 57.51331 0.16591 -22.65296 61.99101 -108.75318 -25.51694 8.09724 38.4212 -11.2724 -15.91505 -114.9617 -5.67139 -4.09151 -2.74068 127.11366 27.63006 19.41004 -140.94163 -6.03887 1.34397 1.24523
1.66299 -0.02246 -0.50211 760.28683 -39.94902 19.64906 6.24245 13.7927 -18.13041 22.04877 9.80475 -0.83079 95.85546 -11.61301 21.36515 55.20314 109.73292 -28.72955 -7.77713 57.76336 0.21503 -22.78208 62.29331 -109.27452 -25.82133 8.14202 38.98948 -11.20612 -15.93907 -115.3276 -5.6859 -4.12205 -2.75967 127.52067 28.38392 19.90522 -140.96081 -5.64853 0.91686 1.03189
1.66214 -0.02272 -0.50169 760.79484 -40.24465 19.93688 6.23548 14.13916 -18.08818 22.08133 9.86596 -0.83079 95.00302 -13.79266 21.44912 54.00722 110.94559 -29.22515 -7.92445 58.03439 0.166 -22.92868 62.1022 -110.89155 -26.43706 8.33873 39.46438 -11.22933 -16.07433 -115.50444 -5.69102 -4.14704 -2.77742 127.84315 29.1137 20.1933 -140.87751 -3.04575 -0.99353 0.08932
1.66144 -0.02283 -0.50117 761.27761 -40.55096 20.22041 6.25944 14.45295 -18.01835 22.06792 9.91267 -0.83079 94.2159 -16.15391 21.87716 52.54855 112.55978 -29.9294 -8.11607 58.30195 0.09602 -23.09068 61.73492 -112.84678 -27.14534 8.58332 39.90485 -11.27666 -16.24914 -115.60939 -5.69391 -4.16983 -2.79451 128.12944 29.82382 20.40779 -140.75677 0.27772 -3.38866 -1.09081
1.6607 -0.023 -0.5007 761.77477 -40.85012 20.50558 6.27651 14.77895 -17.9705 22.07295 9.96373 -0.83079 93.40557 -18.42929 22.14876 51.21875 113.95905 -30.51682 -8.28469 58.56542 0.04789 -23.25422 61.45322 -114.5752 -27.79145 8.79638 40.3609 -11.30643 -16.40239 -115.74583 -5.69872 -4.19281 -2.81122 128.42888 30.53014 20.66138 -140.65375 3.17255 -5.49569 -2.12856
